<svg id="Layer_1" data-name="Layer 1" xmlns="http://www.w3.org/2000/svg" xmlns:xlink="http://www.w3.org/1999/xlink" viewBox="0 0 74.08 68"><defs><style>.cls-1{fill:url(#linear-gradient);}.cls-2{fill:url(#linear-gradient-2);}.cls-3{fill:url(#linear-gradient-3);}.cls-4{fill:url(#linear-gradient-4);}.cls-5{fill:url(#linear-gradient-5);}</style><linearGradient id="linear-gradient" x1="15.46" y1="53.15" x2="89.54" y2="53.15" gradientUnits="userSpaceOnUse"><stop offset="0" stop-color="#f87171"/><stop offset="0.53" stop-color="#9b4dca"/><stop offset="1" stop-color="#3b82f6"/></linearGradient><linearGradient id="linear-gradient-2" x1="61.92" y1="78.55" x2="89.54" y2="78.55" xlink:href="#linear-gradient"/><linearGradient id="linear-gradient-3" x1="15.46" y1="78.55" x2="55.48" y2="78.55" xlink:href="#linear-gradient"/><linearGradient id="linear-gradient-4" x1="61.92" y1="27.45" x2="89.54" y2="27.45" xlink:href="#linear-gradient"/><linearGradient id="linear-gradient-5" x1="15.46" y1="27.45" x2="55.48" y2="27.45" xlink:href="#linear-gradient"/></defs><title>logo</title><path class="cls-1" d="M82.11,44.7H22.89c-4.1,0-7.43,3.79-7.43,8.45s3.33,8.45,7.43,8.45H82.11c4.1,0,7.43-3.79,7.43-8.45S86.21,44.7,82.11,44.7Z" transform="translate(-15.46 -19)"/><path class="cls-2" d="M82.11,70.1H69.35c-4.1,0-7.43,3.79-7.43,8.45S65.25,87,69.35,87H82.11c4.1,0,7.43-3.79,7.43-8.45S86.21,70.1,82.11,70.1Z" transform="translate(-15.46 -19)"/><path class="cls-3" d="M48,70.1H22.89c-4.1,0-7.43,3.79-7.43,8.45S18.79,87,22.89,87H48c4.1,0,7.43-3.79,7.43-8.45S52.14,70.1,48,70.1Z" transform="translate(-15.46 -19)"/><path class="cls-4" d="M69.35,35.9H82.11c4.1,0,7.43-3.79,7.43-8.45S86.21,19,82.11,19H69.35c-4.1,0-7.43,3.79-7.43,8.45S65.25,35.9,69.35,35.9Z" transform="translate(-15.46 -19)"/><path class="cls-5" d="M22.89,35.9H48c4.1,0,7.43-3.79,7.43-8.45S52.14,19,48,19H22.89c-4.1,0-7.43,3.79-7.43,8.45S18.79,35.9,22.89,35.9Z" transform="translate(-15.46 -19)"/></svg>